# xmcd CD database file
#
# Track frame offsets:
#	183
#	24783
#	45505
#	70008
#	76715
#	93035
#	121923
#	147418
#
# Disc length: 2314 seconds
#
# Revision: 0
# Processed by: cddbd v1.5.2PL0 Copyright (c) Steve Scherf et al.
# Submitted via: CDex 1.78
#
DISCID=52090808
DTITLE=Post Image - Les Nouvelles
DYEAR=2007
DGENRE=Jazz
TTITLE0=Echo corico
TTITLE1=Vol de nuit
TTITLE2=Freddy
TTITLE3=Tropical road
TTITLE4=Suite tropicale
TTITLE5=Bambou
TTITLE6=Martinet blues
TTITLE7=Les nouvelles
EXTD=YEAR: 2007
EXTT0=
EXTT1=
EXTT2=
EXTT3=
EXTT4=
EXTT5=
EXTT6=
EXTT7=
PLAYORDER=
